<svg xmlns="http://www.w3.org/2000/svg" width="34.928" height="50.764" viewBox="0 0 34.928 50.764"><path d="M20.94.001a1.65 1.65 0 00-1.477.8l-3.181 5.163-15.4 8.833a1.649 1.649 0 00-.829 1.426L.001 34.454a1.647 1.647 0 00.16.714 1.647 1.647 0 00.66.717l15.517 9.018 3.125 5.073a1.649 1.649 0 002.269.54 1.649 1.649 0 00.539-2.269l-2.509-4.073 14.285-8.193a1.649 1.649 0 00.829-1.426l.052-18.231a1.649 1.649 0 00-.82-1.43L19.785 6.569l2.486-4.036a1.65 1.65 0 00.068-1.652 1.649 1.649 0 00-1.4-.881zm-3.429 9.063l14.116 8.2-.047 16.327-14.163 8.123-14.116-8.2.047-16.327z" fill="#5ebfa5"/><path d="M23.38 29.079l.02-6.862-5.934-3.448-5.952 3.413-.022 6.863 5.933 3.449z" fill="#5ebfa5"/></svg>